<svg width="21" height="20" viewBox="0 0 21 20" fill="none" xmlns="http://www.w3.org/2000/svg">
<path fill-rule="evenodd" clip-rule="evenodd" d="M11.8516 1.6528C11.8516 0.748037 12.585 0.0145874 13.4898 0.0145874H19.2164C20.1211 0.0145874 20.8546 0.748039 20.8546 1.6528V7.37939C20.8546 8.28415 20.1211 9.0176 19.2164 9.0176H13.4898C12.585 9.0176 11.8516 8.28415 11.8516 7.37939V1.6528ZM13.5188 1.6818H19.1874V7.35036H13.5188V1.6818ZM17.9013 2.96796H14.805V6.06424H17.9013V2.96796ZM2.62896 0.0146045C1.7242 0.0146045 0.990753 0.748054 0.990753 1.65281V7.37941C0.990753 8.28416 1.7242 9.01761 2.62896 9.01761H8.35555C9.26031 9.01761 9.99376 8.28416 9.99376 7.37941V1.65281C9.99376 0.748056 9.26031 0.0146045 8.35556 0.0146045H2.62896ZM8.32659 1.68182H2.65803V7.35038H8.32659V1.68182ZM3.94419 2.96798H7.04047V6.06425H3.94419V2.96798ZM2.62905 10.8277C1.7243 10.8277 0.990845 11.5612 0.990845 12.466V18.1925C0.990845 19.0973 1.72429 19.8308 2.62905 19.8308H8.35565C9.2604 19.8308 9.99385 19.0973 9.99385 18.1925V12.466C9.99385 11.5612 9.2604 10.8277 8.35565 10.8277H2.62905ZM8.32662 12.495H2.65806V18.1635H8.32662V12.495ZM3.94422 13.7811H7.0405V16.8774H3.94422V13.7811ZM11.8516 12.466C11.8516 11.5612 12.585 10.8277 13.4898 10.8277H13.7093V12.2092H15.4241V10.8278H17.2819V12.2092H18.9968V10.8278H19.2164C20.1211 10.8278 20.8546 11.5612 20.8546 12.466V16.2581H18.9968V14.0669H17.2819V16.2581H15.4241V14.0669H13.7093V19.8308H13.4898C12.585 19.8308 11.8516 19.0973 11.8516 18.1925V12.466ZM15.4241 17.6395H17.2819V19.8308H15.4241V17.6395ZM18.9968 17.6395H20.8546V18.1925C20.8546 19.0973 20.1211 19.8308 19.2164 19.8308H18.9968V17.6395Z" fill="#878E97"/>
</svg>
